<svg width="289" height="289" viewBox="0 0 289 289" fill="none" xmlns="http://www.w3.org/2000/svg"><g clip-path="url(#a)"><path d="M144.71.115c.69.405 1.317 1.678 1.71 2.395 4.001 7.295 7.451 14.972 11.159 22.429l18.905 37.797 78.321 156.825 23.227 46.723a736 736 0 0 0 6.263 12.382c1.248 2.42 2.64 4.844 3.733 7.336.362.825.874 1.947.53 2.84-.451.259-128.467.089-142.999.085L.273 288.803c1.034-3.174 2.922-6.275 4.432-9.245a1555 1555 0 0 0 7.646-15.219 7264 7264 0 0 1 32.457-64.982l79.266-158.97 14.169-28.24c1.467-2.894 4.435-9.895 6.467-12.032" fill="#FFDE00"/><path d="M144.56 24.565c.052.016.107.026.157.048.69.308 1.095 1.41 1.43 2.053 4.66 8.976 9 18.149 13.503 27.207l21.028 42.275 42.228 84.575 35.566 71.262 9.523 18.831c1.196 2.359 2.616 4.603 3.676 7.028-5.56.22-11.188.059-16.755.035l-26.732-.049-83.202.022-127.204.017c.68-1.63 1.628-3.192 2.424-4.77l4.785-9.627 16.573-33.124 45.273-90.715 37.762-75.694 12.141-24.28c2.505-5.013 4.863-10.338 7.824-15.094" fill="#343539"/><path d="M114.709 264.692c3.149.085 6.483-.008 9.581.547.328 2.434.281 4.964.143 7.41-.28.002-.558.007-.837-.02-2.385-.233-7.2-5.985-8.887-7.937m20.059-7.822c2.721 1.75 5.277 4.889 7.417 7.321.436 2.696.304 5.721.067 8.436-2.554.022-5.154.139-7.696-.095-.291-3.938-.375-11.85.212-15.662m-74.844-15.222c2.558-.155 5.142-.087 7.704-.066-.688 3.35-2.74 6.761-4.22 9.846a252 252 0 0 0-3.669 7.997c-.398.843-.992 1.605-1.52 2.37-.98-3.133-2.596-5.997-3.513-9.165.562-2.491 3.305-9.577 5.218-10.982m107.46 9.521c1.211 1.027 3.205 5.294 3.675 6.905.118.405.201.847.043 1.254-.843 2.177-2.604 4.386-3.873 6.372a85 85 0 0 0-3.852 6.69l-4.921.081c-1.534.05-3.032.073-4.562-.056 1.297-2.457 3.148-4.711 4.619-7.085 2.75-4.435 5.664-10.266 8.871-14.161m37.598-9.147c3.017-.213 5.527.202 8.188 1.699 3.579 2.013 7.022 5.372 8.057 9.486.142.559.302 1.179-.02 1.697-1.784.472-5.216.239-7.21.347-.745-1.282-1.417-2.359-2.505-3.374-6.492-4.969-8.707.954-11.392.858-1.678-.06-4.782-3.629-6.035-4.816 2.778-2.918 6.99-5.087 10.917-5.897m-166.435-.468c2.26-.079 5.712-.426 7.787.407.694.279 1.065.968 1.434 1.579 1.832 3.04 3.148 6.527 4.602 9.766 1.537 3.422 3.217 6.78 4.767 10.198-.67 2.35-1.68 4.603-2.61 6.857-.446.958-.934 1.653-1.639 2.446-1.493-2.549-2.328-5.486-3.62-8.146l-6.487-13.645c-1.29-2.662-2.82-5.331-3.923-8.065a4.6 4.6 0 0 1-.311-1.397m187.537 13.954c.72.406 1.378.897 2.05 1.378l4.51 4.905c.799 1.093.979 1.995 1.141 3.304 5.964.162 11.95-.158 17.921.026.185 2.454.057 4.94-.1 7.392-8.189.585-17.374.325-25.625.107-.135-2.373.029-4.785.006-7.165-.033-3.339-.244-6.613.097-9.947M173.03 241.69c.912.713 3.926 6.599 4.76 7.979 2.677 4.433 5.354 8.881 8.107 13.266 1.959 3.12 4.27 6.188 5.688 9.605l-4.858.051c-1.015.037-2.146.153-3.145-.043-.433-.084-.891-.263-1.192-.6-1.655-1.858-2.841-4.548-4.126-6.678-3.218-5.333-6.379-10.682-9.806-15.883 1.09-2.494 2.759-5.682 4.572-7.697m-101.186 5.443c1.958 1.254 3.738 3.924 4.986 5.86-.59 2.6-1.364 5.202-.029 7.732 1.308 2.479 4.024 3.826 6.604 4.581 1.656-.296 3.221-1.22 4.802-1.808 1.298 1.126 3.509 3.069 4.267 4.581.206.409.32.982.144 1.414-.361.887-1.323 1.223-2.126 1.619-1.695.646-3.43 1.173-5.227 1.442-3.56.535-7.636-.403-10.539-2.56-3.353-2.49-5.756-6.404-6.332-10.556-.581-4.185.962-8.96 3.45-12.305m11.037-5.124c3.15-.175 5.7.772 8.372 2.385 3.562 2.151 6.135 5.441 7.122 9.524.83 3.43.171 8.799-1.78 11.755-.436.66-.868 1.013-1.647 1.185-1.285-.172-3.053-2.358-3.995-3.284l-1.384-1.534c.686-2.654 1.59-5.672.543-8.357-.516-1.323-1.62-2.175-2.888-2.726-3.058-1.329-5.498-.752-8.462.416a542 542 0 0 1-5.17-5.864c2.891-1.861 5.898-2.946 9.29-3.5" fill="#FFDE00"/><path d="M103.093 242.002c2.507-.069 5 .068 7.502.212.013 3.83-.646 19.778.416 22.069.978 2.109 7.08 5.525 7.733 8.069l-.297.361c-2.574.187-5.176.025-7.757.023-2.535-.002-5.121.193-7.641-.068-.541-3.905-.182-8.274-.174-12.228.013-6.11-.202-12.345.218-18.438m20.417-.012c5.684-.236 11.455-.031 17.148-.021 4.38.007 8.986-.277 13.334.197q.06 3.766-.065 7.531c-2.254.29-10.301-.464-11.548.229.082 2.009.67 10.033-.177 11.406-.168-.08-7.015-7.364-7.629-8.113-.11-1.11-.088-2.264-.117-3.38-3.628-.381-7.481.108-11.147.019-.057-2.616.096-5.254.201-7.868m48.652-142.35c1.578-.067 4.819-.555 6.208.189.449.24.773.975 1.017 1.422 2.144 3.932 3.948 8.05 5.992 12.034a527 527 0 0 1 5.15 10.207c.655 1.337 1.566 2.809 1.961 4.224.13.462.147.256-.086.673a4 4 0 0 1-.704.077c-3.402.009-5.048-1.963-7.194-4.218-3.074-3.313-6.399-6.426-9.624-9.593-2.942-2.888-5.736-5.912-8.643-8.833-2.021-2.03-4.161-3.932-6.153-5.993 3.969.198 8.105-.052 12.076-.188m20.961 150.527c1.088.667 1.94 1.592 2.845 2.479.937.919 2.154 1.931 2.695 3.153 1.209 2.728-.583 4.014 3.07 7.231 1.587 1.397 3.518 2.199 5.65 2.008 1.003-.089 2.055-.234 2.719-1.055.29-1.213-1.294-2.858-1.931-3.916 4.08-.801 9.649-.495 13.797-.089.065 2.938.005 5.889.004 8.828-.015 1.308-.156 2.548-.354 3.841-1.573.029-6.87.459-7.837-.35-.051-.439-.092-.812-.249-1.229-1.378-.341-3.323 1.232-4.767 1.501-3.468.646-8.068-.519-10.946-2.505-3.19-2.203-5.692-6.244-6.329-10.068-.49-2.947-.091-7.362 1.633-9.829m32.818-8.039c3.53-.326 22.982-.555 25.323.181 1.041 1.212.522 5.843.476 7.51l-16.324.077c.696 1.091 1.371 2.181 2.205 3.174 4.268.938 9.673.195 14.152.591.004 2.569-.014 5.118-.18 7.682a168 168 0 0 0-9.322-.002c-2.208.055-4.959.477-7.12.027-.52-.109-.867-.409-1.26-.74-.391.401-.772.861-1.247 1.162l-4.51-4.905.307-.442.616-.023.136-.257-.257-.305.363-.321c-1.179-1.292-2.455-2.471-3.448-3.92q-.063-4.746.09-9.489" fill="#FFDE00"/><path d="M229.299 255.538c1.692 1.57 3.15 3.295 4.592 5.091-.391.401-.772.861-1.247 1.162l-4.51-4.904.308-.442.615-.023.136-.257-.257-.305z" fill="#07052A"/><path d="M139.14 185.116c2.637-2.898 4.256-6.847 6.594-9.998-.557 2.952-1.912 5.434-3.052 8.178.305 1.734-1.403 3.581-1.569 5.371-1.321 3.977-5.976 11.611-8.262 15.512-1.181 2.015-2.485 3.91-3.29 6.117 2.138-.271 10.454-1.91 11.938-.831.379.275.486.646.513 1.094.084 1.377-2.877 5.144-3.802 6.099-.654-.175-1.15-.036-1.799.108-2.371 3.109-4.483 6.579-6.611 9.86a791 791 0 0 1-8.251 12.505c-1.761 2.651-3.322 5.611-5.574 7.876.608-3.555 4.73-11.665 6.362-15.382 1.804-4.108 3.339-8.27 5.347-12.291-4.727.413-9.478 1.179-14.213 1.362 1.316-2.736 3.289-4.925 5.113-7.321a128 128 0 0 0 4.731-6.752c1.699-1.99 3.187-4.275 4.743-6.385 3.706-5.027 7.321-10.14 11.082-15.122" fill="#FFDE00"/><path d="M142.682 183.296c.305 1.733-1.403 3.581-1.569 5.37-1.321 3.978-5.976 11.612-8.262 15.513-1.181 2.015-2.485 3.91-3.29 6.117 2.138-.271 10.454-1.91 11.938-.831.378.275.486.646.513 1.094.083 1.377-2.877 5.144-3.802 6.098-.654-.175-1.15-.036-1.8.109l2.605-3.65c-.685-.858-1.556-1.458-2.427-2.111q-4.692.671-9.414 1.081c1.498-3.83 3.649-7.309 5.653-10.884 3.323-5.935 6.735-11.862 9.855-17.906" fill="#000"/><path d="M136.587 211.005c1.03-.121 2.194-.388 3.211-.155l.287.31c-.032.748-.622 1.387-1.07 1.956-.685-.858-1.556-1.458-2.428-2.111m9.108-108.542c.546-.093 1.121-.184 1.613.122 1.599.993 6.186 6.301 7.951 8.066l14.56 14.527c1.205 1.181 2.556 2.221 3.742 3.413.425.426.709.846.818 1.445-.344.321-.723.326-1.181.347-1.953.09-3.999-.097-5.962-.123q-5.514-.026-11.03.007c-1.269.019-2.64-.039-3.89.17-3.069.515-4.95 3.028-6.629 5.417-.768-2.477-1.121-5.072-1.907-7.55-2.272-7.17-6.718-13.962-11.387-19.756 4.22-3.013 8.349-4.682 13.302-6.085" fill="#FFDE00"/><path d="M147.59 142.092c1.342.908 2.903 2.183 4.515 2.487 3.739.708 8.78.224 12.665.211a2341 2341 0 0 1 24.861.045c3.77.018 7.679-.229 11.434.052 1.916 2.714 3.243 6.288 4.734 9.278l10.009 20.146c3.964 8.071 8.886 16.492 12.28 24.752-2.34 5.981-11.071 12.85-16.845 15.406-3.155 1.398-6.315 2.205-9.745 2.521-5.977.552-12.136.42-18.137.403l-26.033-.123c-3.607-.003-16.482.608-18.871-.148l-.247-.464c.925-.955 3.886-4.722 3.802-6.099-.027-.448-.134-.818-.513-1.094-1.484-1.079-9.8.56-11.937.831.804-2.206 2.108-4.102 3.289-6.117 2.286-3.9 6.941-11.534 8.262-15.512q.094-.022.188-.04c3.252-.631 7.189-.061 10.528-.052l26.996-.009c5.301.013 16.046.718 20.722-.606 1.3-.368 2.408-1.209 3.169-2.32 1.187-1.73 1.619-4.269 1.192-6.313-.369-1.763-1.797-3.387-3.296-4.342-1.163-.741-3-.972-4.369-1.074-4.368-.323-8.926-.072-13.314-.069-12.36.009-24.934.448-37.262-.487 2.659-11.798 3.545-19.118 1.923-31.263" fill="#FFDE00"/><path d="M113.059 95.553c.19.085.38.17.565.264 3.207 1.632 6.1 4.12 8.772 6.511 9.808 8.782 16.394 18.826 20.378 31.399a63 63 0 0 1 .879 3.094 66 66 0 0 1 2.068 17.522 66.4 66.4 0 0 1-.873 9.604 66 66 0 0 1-.963 4.728 70 70 0 0 1-.397 1.559 68 68 0 0 1-.91 3.085 62 62 0 0 1-.511 1.525 62 62 0 0 1-1.133 3.011 62 62 0 0 1-1.279 2.951 64 64 0 0 1-1.422 2.885c.255.395.328.59.339 1.061l.568.364c-3.761 4.982-7.376 10.095-11.082 15.123-1.556 2.11-3.044 4.394-4.743 6.385l-.199-.339a3.7 3.7 0 0 0 .263-.792c-.424-.506-1.082-.007-1.781-.259-1.076.62-2.172 1.615-3.197 2.348-2.695 1.929-5.381 3.785-8.314 5.34-4.617 2.446-9.252 4.055-14.254 5.491-11.197 3.214-22.239 3.697-33.59.853-3.22-.806-6.33-1.93-9.497-2.908 1.232-3.683 3.53-7.452 5.302-10.935l9.819-19.526c4.71 1.342 9.5 1.548 14.358 1.07 8.404-.827 16.555-5.444 21.888-12.003 5.301-6.521 8.318-15.984 7.475-24.355-1.094-10.873-5.456-17.957-13.773-24.759 1.552-4.011 3.891-7.886 5.795-11.756 2.03-4.128 4.045-8.242 6.146-12.336 1.07-2.085 2.047-4.223 3.303-6.205" fill="#FFDE00"/><path d="M138.233 183.69c.255.396.328.591.339 1.062l.568.364c-3.761 4.982-7.376 10.095-11.082 15.123-1.556 2.109-3.044 4.394-4.743 6.384l-.199-.338c.123-.266.199-.506.263-.792-.424-.506-1.082-.007-1.781-.259 6.372-6.374 11.392-14.247 16.635-21.544" fill="#000"/></g><defs><clipPath id="a"><path fill="#fff" d="M0 0h289v289H0z"/></clipPath></defs></svg>
