<svg width="358" height="426" viewBox="0 0 358 426" fill="none" xmlns="http://www.w3.org/2000/svg">
<mask id="mask0_271_1250" style="mask-type:luminance" maskUnits="userSpaceOnUse" x="0" y="0" width="357" height="426">
<path d="M356.372 0H0V425.538H356.372V0Z" fill="white"/>
</mask>
<g mask="url(#mask0_271_1250)">
<path d="M339.797 92.9945C340.273 87.4075 340.424 76.0771 340.899 70.49C336.028 69.7662 331.116 69.3308 326.194 69.1875C325.104 61.5686 321.655 53.9081 317.043 48.8244C321.054 45.6331 324.122 42.8811 328.013 39.7483C324.806 35.2093 319.847 27.6148 313.452 20.1768C308.102 23.7903 306.461 24.7327 302.499 28.3198C299.621 23.5886 298.596 22.1221 292.345 18.7217C288.288 16.5144 284.917 15.7265 279.057 15.6398C279.615 10.5146 279.468 8.56551 280.18 2.01529C269.655 1.85884 259.618 2.34704 254.875 1.41211C254.035 6.13015 254.259 9.20074 253.862 15.0969C251.346 15.0592 246.643 15.4513 242.524 16.4201C237.461 17.6114 233.691 20.3634 231.313 22.6725C227.626 18.8084 224.907 16.4635 221.943 14.4862C210.589 24.254 202.826 30.9908 203.163 31.4809C205.138 34.3517 209.085 38.4477 212.326 41.3656C209.025 44.9451 206.261 49.4747 205.622 53.2597C204.983 57.0447 204.569 57.6686 204.554 61.5082C200.158 61.0653 192.457 61.6251 187.383 61.7684C187.511 70.0018 187.641 78.2353 187.769 86.4688C187.773 86.7176 187.782 86.9834 187.924 87.1889C188.135 87.4905 188.549 87.5489 188.915 87.5828C194.339 88.0635 198.554 87.2963 203.979 87.777C204.007 95.0473 207.834 102.146 211.759 108.485C208.891 111.671 204.601 115.906 201.562 118.649C208.077 124.462 213.104 131.142 219.62 136.955C222.691 134.637 228.504 129.96 231.577 127.64C234.347 131.772 245.428 139.074 255.003 135.875C255.169 140.411 253.618 150.101 256.173 151.119C262.129 153.49 274.156 150.991 280.566 150.938C282.304 145.851 280.018 141.025 281.753 135.938C288.162 134.53 294.248 130.39 300.686 124.573C303.09 127.742 305.67 131.125 308.656 134.102C308.888 134.333 309.165 134.58 309.493 134.563C309.747 134.55 309.962 134.381 310.158 134.217C315.27 129.974 320.271 125.595 325.153 121.09C325.422 120.841 325.708 120.554 325.729 120.191C325.75 119.817 325.484 119.497 325.235 119.218C322.134 115.753 319.033 112.287 315.929 108.823C320.174 104.525 323.07 98.721 324.649 92.5761C343.1 93.5393 339.674 94.3649 339.789 92.9945H339.797ZM303.97 82.7215C301.474 104.487 288.028 112.762 278.671 114.879C269.815 116.883 256.441 117.633 245.75 112.526C237.557 108.613 232.881 102.879 228.754 94.789C224.283 86.0221 221.525 75.6548 224.73 66.3488C227.326 58.8071 233.254 50.7263 239.726 46.0686C247.308 40.6154 256.143 38.4628 265.444 37.6183C274.744 36.7738 286.775 38.1254 293.145 46.8621C302.653 57.612 305.289 71.2139 303.968 82.7196L303.97 82.7215Z" fill="#E3E3FF" stroke="#403500" stroke-width="1.5" stroke-linecap="round" stroke-linejoin="round"/>
<path d="M21.9152 128.884C15.3262 127.452 8.00413 130.391 4.23194 135.981C0.459749 141.572 0.476707 149.466 4.27151 155.042C5.46045 156.789 6.99231 158.322 8.81999 159.379C11.4748 160.916 14.6158 161.385 17.6814 161.475C20.1535 161.549 22.6331 161.394 25.0769 161.015C26.6861 160.767 28.3008 160.41 29.7479 159.664C33.2657 157.847 35.312 153.854 35.5513 149.902C35.7906 145.949 34.4528 142.045 32.5855 138.554C30.479 134.613 27.3323 130.063 21.9171 128.884H21.9152Z" fill="#E3E3FF" stroke="#403500" stroke-width="1.5" stroke-linecap="round" stroke-linejoin="round"/>
<path d="M21.9152 128.884C15.3262 127.452 8.00413 130.391 4.23194 135.981C0.459749 141.572 0.476707 149.466 4.27151 155.042C5.46045 156.789 6.99231 158.322 8.81999 159.379C11.4748 160.916 14.6158 161.385 17.6814 161.475C20.1535 161.549 22.6331 161.394 25.0769 161.015C26.6861 160.767 28.3008 160.41 29.7479 159.664C33.2657 157.847 35.312 153.854 35.5513 149.902C35.7906 145.949 34.4528 142.045 32.5855 138.554C30.479 134.613 27.3323 130.063 21.9171 128.884H21.9152Z" fill="#FFDE00" stroke="#403500" stroke-width="1.5" stroke-linecap="round" stroke-linejoin="round"/>
<path d="M22.4729 295.109C15.8838 293.677 8.56175 296.615 4.78956 302.206C1.01737 307.797 1.03432 315.691 4.82913 321.267C6.01806 323.014 7.54993 324.546 9.37761 325.604C12.0325 327.14 15.1734 327.61 18.2391 327.7C20.7111 327.774 23.1908 327.619 25.6346 327.24C27.2437 326.991 28.8585 326.635 30.3055 325.889C33.8234 324.071 35.8696 320.079 36.1089 316.126C36.3482 312.174 35.0104 308.27 33.1432 304.779C31.0366 300.837 27.89 296.287 22.4748 295.109H22.4729Z" fill="#FFDE00" stroke="#403500" stroke-width="1.5" stroke-linecap="round" stroke-linejoin="round"/>
<path d="M341.297 195.11C334.708 193.678 327.385 196.616 323.613 202.207C319.841 207.798 319.858 215.692 323.653 221.268C324.842 223.015 326.374 224.547 328.201 225.605C330.856 227.141 333.997 227.61 337.063 227.701C339.535 227.774 342.014 227.62 344.458 227.241C346.067 226.992 347.682 226.636 349.129 225.89C352.647 224.072 354.693 220.08 354.933 216.127C355.172 212.175 353.834 208.271 351.967 204.78C349.86 200.838 346.714 196.288 341.298 195.11H341.297Z" fill="#FFDE00" stroke="#403500" stroke-width="1.5" stroke-linecap="round" stroke-linejoin="round"/>
<path d="M69.0508 121.508C69.4672 109.38 70.3114 96.1459 78.4738 87.1678C82.2742 82.987 87.3371 80.1652 92.5149 77.9089C116.989 67.2476 199.564 71.7508 231.519 73.8167C248.311 74.9024 261.146 85.543 264.155 107.633C270.087 151.162 264.639 302.407 256.422 394.304C255.831 400.919 255.051 407.968 250.836 413.097C246.836 417.964 240.465 420.166 234.302 421.465C224.468 423.536 214.357 423.877 204.309 424.019C163.646 424.588 142.381 422.912 102.124 417.146C94.7062 416.083 86.9301 414.756 81.0853 410.066C71.8583 402.662 70.2699 389.458 69.4616 377.653C64.5268 305.678 68.5873 119.838 69.0508 121.508Z" fill="#403500" stroke="#403500" stroke-width="1.5" stroke-linecap="round" stroke-linejoin="round"/>
<path d="M80.6422 133.536C81.0134 122.729 81.3337 108.455 88.6049 100.455C91.9908 96.7302 96.5016 94.2157 101.116 92.2044C122.922 82.7061 194.381 86.6136 222.853 88.4552C231.871 89.0377 244.19 89.4844 249.956 113.88C258.188 148.721 251.109 271.944 243.894 352.658C243.366 358.552 242.673 364.833 238.916 369.404C235.351 373.741 229.676 375.704 224.183 376.859C215.42 378.704 206.413 379.01 197.46 379.134C161.228 379.641 144.398 378.25 108.529 373.112C101.919 372.166 94.9905 370.982 89.7825 366.803C81.5599 360.206 80.1467 348.44 79.425 337.922C75.0273 273.79 80.2296 132.049 80.6422 133.536Z" fill="white" stroke="#403500" stroke-width="1.5" stroke-linecap="round" stroke-linejoin="round"/>
<path d="M169.569 390.602C165.2 387.313 158.543 387.223 154.682 391.096C150.763 395.028 150.539 401.878 153.776 406.389C154.76 407.759 156.048 408.958 157.62 409.573C161.946 411.265 169.585 411.003 171.863 405.603C172.403 404.323 175.58 395.126 169.569 390.602Z" fill="white" stroke="#403500" stroke-width="1.5" stroke-linecap="round" stroke-linejoin="round"/>
<path d="M48.0585 174.836C49.6187 156.109 50.4402 137.32 50.5212 118.529C50.5287 116.662 51.9701 115.113 53.8317 114.987C96.8577 112.065 140.042 111.46 183.132 113.173C185.133 113.253 186.678 114.975 186.548 116.975L183.84 158.757C183.72 160.627 182.169 162.082 180.298 162.086L74.9123 162.269C72.4572 162.273 69.9455 162.286 67.6317 163.112C65.6326 163.824 63.8934 165.106 62.1863 166.369C54.8568 171.794 47.855 177.269 48.0585 174.836Z" fill="#FFDE00" stroke="#403500" stroke-width="1.5" stroke-linecap="round" stroke-linejoin="round"/>
<path d="M305.513 182.685C258.879 181.782 212.234 181.897 165.889 183.348C164.041 183.407 162.556 184.871 162.445 186.719C161.609 200.475 162.617 217.426 162.624 231.411C162.624 233.32 164.098 234.904 166.004 234.981C202.422 236.444 247.928 234.749 284.346 236.353C284.906 236.378 285.444 236.532 285.933 236.806C291.489 239.935 296.844 243.548 303.235 248.006C304.228 248.7 305.613 248.07 305.736 246.866C308.087 223.709 307.222 209.4 309.003 186.536C309.161 184.492 307.563 182.724 305.513 182.685Z" fill="#FFDE00" stroke="#403500" stroke-width="1.5" stroke-linecap="round" stroke-linejoin="round"/>
<path d="M45.4375 351.61C47.0014 332.828 48.3185 280.583 48.3938 261.931C48.4014 260.039 49.9521 258.527 51.8438 258.555C100.543 259.274 182.942 257.749 201.946 258.731C204.148 258.844 205.838 260.704 205.746 262.91L203.223 335.859C203.103 337.729 201.552 339.184 199.681 339.188L72.2932 339.045C69.838 339.049 67.3264 339.062 65.0126 339.887C63.0134 340.6 61.2743 341.882 59.5672 343.145C52.2376 348.57 45.2359 354.045 45.4394 351.612L45.4375 351.61Z" fill="#FFDE00" stroke="#403500" stroke-width="1.5" stroke-linecap="round" stroke-linejoin="round"/>
<path d="M64.5361 129.544C100.523 129.911 136.515 129.793 172.498 129.191L64.5361 129.544Z" fill="#FFDE00"/>
<path d="M64.5361 129.544C100.523 129.911 136.515 129.793 172.498 129.191" stroke="#403500" stroke-width="1.5" stroke-linecap="round" stroke-linejoin="round"/>
<path d="M63.6411 145.677C84.846 145.984 106.058 145.696 127.248 144.812L63.6411 145.677Z" fill="#FFDE00"/>
<path d="M63.6411 145.677C84.846 145.984 106.058 145.696 127.248 144.812" stroke="#403500" stroke-width="1.5" stroke-linecap="round" stroke-linejoin="round"/>
<path d="M178.979 197.336C214.235 197.611 249.492 197.539 284.746 197.119L178.979 197.336Z" fill="#FFDE00"/>
<path d="M178.979 197.336C214.235 197.611 249.492 197.539 284.746 197.119" stroke="#403500" stroke-width="1.5" stroke-linecap="round" stroke-linejoin="round"/>
<path d="M113.588 315.558C121.424 304.173 130.548 290.145 137.353 278.14C137.629 277.654 138.303 277.629 138.625 278.086C148.06 291.454 158.387 304.192 169.513 316.188C169.969 316.68 169.609 317.472 168.938 317.462C142.422 317.112 130.478 317.898 114.18 316.748C113.59 316.706 113.253 316.047 113.588 315.56V315.558Z" fill="white" stroke="#403500" stroke-width="1.5" stroke-linecap="round" stroke-linejoin="round"/>
<path d="M128.277 316.058C120.117 307.376 109.54 295.601 106.84 292.587C106.507 292.215 105.923 292.26 105.646 292.675C102.744 297.018 89.2626 317.247 89.956 317.257C99.9065 317.404 113.673 317.165 127.708 317.336C128.383 317.344 128.739 316.548 128.277 316.058Z" fill="#403500" stroke="#403500" stroke-width="1.5" stroke-linecap="round" stroke-linejoin="round"/>
<path d="M114.722 277.983C114.213 279.319 114.532 280.917 115.427 282.033C115.917 282.644 116.57 283.111 117.275 283.451C119.154 284.357 121.579 284.299 123.167 282.946C124.077 282.171 124.65 281.014 124.72 279.82C124.789 278.627 124.354 277.413 123.54 276.537C122.845 275.787 121.91 275.298 120.949 274.948C120.182 274.667 116.122 274.299 114.722 277.983Z" fill="white" stroke="#403500" stroke-width="1.5" stroke-linecap="round" stroke-linejoin="round"/>
<path d="M178.938 214.893C197.249 214.861 215.56 214.827 233.87 214.795L178.938 214.893Z" fill="#FFDE00"/>
<path d="M178.938 214.893C197.249 214.861 215.56 214.827 233.87 214.795" stroke="#403500" stroke-width="1.5" stroke-linecap="round" stroke-linejoin="round"/>
<path d="M177.956 274.472C178.105 267.553 178.508 260.639 179.168 253.749C179.462 250.673 179.872 247.431 181.753 244.977C183.633 242.522 187.496 241.322 189.876 243.293C191.575 244.701 191.95 247.129 192.091 249.333C192.463 255.178 192.001 261.076 190.729 266.793C190.507 267.786 190.249 268.804 189.648 269.626C189.047 270.448 188.022 271.04 187.023 270.84C185.595 270.554 184.922 268.929 184.581 267.513C183.168 261.642 183.364 255.391 185.144 249.621" stroke="#403500" stroke-width="1.5" stroke-linecap="round" stroke-linejoin="round"/>
</g>
</svg>
