<svg width="80" height="80" viewBox="0 0 80 80" fill="none" xmlns="http://www.w3.org/2000/svg">
<g clip-path="url(#clip0_3013_1712)">
<path d="M67.5125 38.073C65.9375 38.0605 64.6875 39.388 64.79 40.9505C64.7375 42.5255 65.9875 43.828 67.55 43.8405C69.125 43.853 70.3625 42.5255 70.2725 40.9505C70.325 39.388 69.075 38.0855 67.5125 38.073ZM45.8075 38.073C44.245 38.0605 42.9825 39.388 43.1 40.9505C43.0475 42.5255 44.285 43.828 45.86 43.8405C47.4225 43.853 48.6725 42.5255 48.5675 40.9505C48.62 39.388 47.3825 38.0855 45.8075 38.073ZM22.4475 37.8905C21.6 37.8655 20.795 38.243 20.2725 38.918C19.765 39.633 19.5575 40.5055 19.7 41.3655L24.6225 39.333C24.2575 38.4605 23.3975 37.888 22.4475 37.888V37.8905ZM0 26.668V53.3355H80V26.668H0ZM16.6925 46.0955H7.4225V32.763H10.2875V43.5055H16.695L16.6925 46.0955ZM22.7475 44.023C23.8275 44.0355 24.8825 43.658 25.69 42.928L27.475 44.2955C26.2 45.558 24.4925 46.2605 22.6975 46.2605C19.6375 46.5605 16.955 44.203 16.865 41.1305C16.775 38.0455 19.3125 35.5455 22.4 35.6605C23.9225 35.583 25.4075 36.1955 26.45 37.328C27.1275 38.148 27.5575 39.138 27.6875 40.193L20.475 43.2005C21.0875 43.7605 21.9075 44.0605 22.7525 44.0205L22.7475 44.023ZM39.0225 46.0955H36.1975V40.248C36.1575 38.998 35.09 38.0205 33.8275 38.0855C32.5775 38.008 31.51 38.998 31.4975 40.248V46.0955H28.685V35.823H31.51V37.2955C32.305 36.268 33.5425 35.668 34.8425 35.6555C37.16 35.5255 39.0875 37.413 39.01 39.7305L39.0225 46.0955ZM45.6375 46.263C40.9625 46.068 38.8025 40.3655 42.1875 37.123C45.56 33.893 51.1725 36.2755 51.1725 40.9505C51.16 43.9705 48.6475 46.3805 45.6375 46.263ZM54.96 46.0805L50.74 35.8205H53.955L56.5075 42.8255L59.06 35.8205H62.275L58.0425 46.0805H54.96ZM67.33 46.263C62.6675 46.068 60.5075 40.3655 63.88 37.123C67.265 33.893 72.865 36.2755 72.865 40.9505C72.8525 43.9705 70.3525 46.3805 67.33 46.263ZM73.9975 44.8705H73.5275V46.0955H73.255V44.8705H72.8V44.6105H73.9975V44.8705ZM75.8075 46.0955H75.535V45.0405L75.08 45.7555H75.04L74.585 45.0405V46.0955H74.3125V44.6105H74.6125L75.055 45.313L75.4975 44.6105H75.7975L75.8075 46.0955Z" fill="#ADA69B"/>
</g>
<defs>
<clipPath id="clip0_3013_1712">
<rect width="80" height="80" fill="white"/>
</clipPath>
</defs>
</svg>
