<svg width="211" height="22" viewBox="0 0 211 22" fill="none" xmlns="http://www.w3.org/2000/svg">
<path d="M5.86217 0.0205078L8.43584 5.42884L13.2461 15.5733L13.1542 15.7566L10.3661 21.5927L0.102051 0.0205078H5.86217ZM14.87 0.0510631H20.6608L14.7475 12.4872L14.196 13.6177L11.3159 7.53718L11.4078 7.35384L14.87 0.0510631ZM38.912 3.65662L38.8813 3.62606C40.8728 5.61218 41.9758 8.23995 41.9758 11.0511C41.9758 13.4038 41.2099 15.6344 39.7698 17.4983L39.4635 17.865L35.7561 14.1677L35.94 13.8927C36.4608 13.0677 36.7366 12.09 36.7366 11.0816C36.7366 9.67607 36.1851 8.36218 35.174 7.35384C34.1629 6.34551 32.8455 5.79551 31.4361 5.79551C30.425 5.79551 29.4445 6.07051 28.6173 6.58995L28.3415 6.77329L24.6342 3.07606L25.0019 2.77051C26.8709 1.3344 29.1075 0.570509 31.4667 0.570509C34.2855 0.570509 36.9204 1.67051 38.912 3.65662ZM34.2548 15.5122L34.5612 15.3594L38.2685 19.0566L37.9009 19.3622C36.0319 20.7983 33.7953 21.5622 31.4361 21.5622C28.6173 21.5622 25.9823 20.4622 23.9908 18.4761C21.9993 16.49 20.8963 13.8622 20.8963 11.0511C20.8963 8.69829 21.6622 6.46773 23.1023 4.60384L23.4087 4.23718L27.116 7.9344L26.9321 8.2094C26.4113 9.0344 26.1355 10.0122 26.1355 11.0205C26.1355 12.4261 26.687 13.74 27.6981 14.7483C28.7092 15.7566 30.0267 16.3066 31.4361 16.3066C32.4471 16.3066 33.4276 16.0316 34.2548 15.5122ZM51.0484 16.3983L51.171 16.5205L56.2571 21.5927H45.0432V0.601062H50.2518V16.3983H51.0484ZM53.4383 16.3983H59.6886V21.5927H58.6469L53.4383 16.3983ZM67.3099 21.5927V10.715L72.5186 15.9094V21.5927H67.3099ZM59.4051 0.601062H80.454V5.79551H72.5186V13.5261L67.3099 8.33162V5.79551H59.4051V0.601062ZM80.7686 21.5927L89.7764 6.8344L92.8097 11.8455L86.8657 21.5927H80.7686ZM93.7901 0.234396L106.781 21.6233H100.684L99.4277 19.5455L90.7569 5.21495L93.7901 0.234396ZM112.751 7.96495L112.506 8.30107L108.768 4.57329L109.013 4.26773C111.004 1.91495 113.946 0.570509 117.04 0.570509C119.185 0.570509 121.238 1.21217 122.984 2.4344C125.19 3.93162 126.722 6.19273 127.304 8.78995L127.427 9.3094H122.034L121.912 9.06495C121.636 8.42329 121.238 7.84273 120.747 7.35384C119.736 6.34551 118.419 5.79551 117.01 5.79551C115.6 5.79551 114.283 6.34551 113.272 7.35384C113.088 7.53718 112.904 7.75106 112.751 7.96495ZM118.174 12.7927L127.58 12.8538V21.5622H122.371V20.1566C120.778 21.1038 118.94 21.5927 117.071 21.5927C114.252 21.5927 111.617 20.4927 109.626 18.5066C107.634 16.5205 106.531 13.8927 106.531 11.0816C106.531 9.49273 106.868 7.96495 107.542 6.5594L107.787 6.0094L111.832 10.0427L111.801 10.2566C111.77 10.5316 111.74 10.8066 111.74 11.0816C111.74 12.4872 112.291 13.8011 113.302 14.8094C114.313 15.8177 115.631 16.3677 117.04 16.3677C118.143 16.3677 119.185 16.0316 120.073 15.4205L118.174 12.7927ZM135.825 16.3983L148.173 16.4288V21.6233H130.617V9.73718L135.825 14.9316V16.3983ZM148.173 13.74L136.959 13.7705L130.586 7.41495V0.631618H148.173V5.82607H136.377L139.104 8.54551H148.173V13.74ZM183.788 3.65662L183.758 3.62606C185.749 5.61218 186.852 8.23995 186.852 11.0511C186.852 13.4038 186.086 15.6344 184.646 17.4983L184.34 17.865L180.633 14.1677L180.816 13.8927C181.337 13.0677 181.613 12.09 181.613 11.0816C181.613 9.67607 181.062 8.36218 180.051 7.35384C179.039 6.34551 177.722 5.79551 176.313 5.79551C175.301 5.79551 174.321 6.07051 173.494 6.58995L173.218 6.77329L169.511 3.07606L169.878 2.77051C171.747 1.3344 173.984 0.570509 176.343 0.570509C179.162 0.570509 181.797 1.67051 183.788 3.65662ZM179.131 15.5122L179.438 15.3594L183.145 19.0566L182.777 19.3622C180.908 20.7983 178.672 21.5622 176.313 21.5622C173.494 21.5622 170.859 20.4622 168.867 18.4761C166.876 16.49 165.773 13.8622 165.773 11.0511C165.773 8.69829 166.539 6.46773 167.979 4.60384L168.285 4.23718L171.993 7.9344L171.809 8.2094C171.288 9.0344 171.012 10.0122 171.012 11.0205C171.012 12.4261 171.564 13.74 172.575 14.7483C173.586 15.7566 174.903 16.3066 176.313 16.3066C177.324 16.3066 178.304 16.0316 179.131 15.5122ZM197.549 0.601062H210.969V5.79551H202.757L197.549 0.601062ZM210.694 13.19L210.51 13.5261C210.694 14.1372 210.785 14.7788 210.785 15.4205C210.785 16.0622 210.694 16.7038 210.51 17.315C210.111 18.6288 209.284 19.8205 208.181 20.6455C207.048 21.5011 205.669 21.9594 204.228 21.9594H189.736V16.765H204.228C204.964 16.765 205.577 16.1538 205.577 15.4205C205.577 14.6872 204.964 14.0761 204.228 14.0761H196.293C195.649 14.0761 195.006 13.9844 194.393 13.8011C193.351 13.4955 192.401 12.915 191.636 12.1511C190.87 11.3872 190.287 10.44 189.981 9.40107C189.797 8.78995 189.705 8.14829 189.705 7.50662C189.705 6.86495 189.797 6.22329 189.981 5.61218C190.287 4.57329 190.87 3.62606 191.636 2.86218C192.401 2.09829 193.351 1.51773 194.393 1.21217C194.546 1.15106 194.699 1.12051 194.853 1.08995L195.067 1.02884L200.184 6.13162H196.293C195.557 6.13162 194.945 6.74273 194.945 7.47607C194.945 8.2094 195.557 8.82051 196.293 8.82051H204.228C204.259 8.82051 204.29 8.82051 204.321 8.82051H204.351C204.382 8.82051 204.413 8.82051 204.443 8.82051H204.504C204.566 8.82051 204.627 8.82051 204.688 8.82051C204.719 8.82051 204.75 8.82051 204.78 8.82051H204.811C204.842 8.82051 204.872 8.82051 204.903 8.82051C204.964 8.82051 205.025 8.82051 205.087 8.82051C205.117 8.82051 205.148 8.82051 205.179 8.82051H205.209C205.27 8.82051 205.332 8.82051 205.393 8.82051H205.485C205.546 8.82051 205.607 8.82051 205.669 8.82051H205.699C205.761 8.82051 205.822 8.85106 205.883 8.88162H205.914L205.975 8.91218C206.006 8.91218 206.036 8.91218 206.067 8.91218C206.128 8.94273 206.19 8.97329 206.251 9.00384H206.282C206.404 9.0344 206.527 9.06495 206.649 9.09551H206.68C206.741 9.12607 206.802 9.15662 206.864 9.18718H206.894C206.986 9.21773 207.078 9.24829 207.17 9.27884C207.201 9.27884 207.231 9.27884 207.262 9.27884C207.323 9.3094 207.385 9.33995 207.446 9.37051C207.538 9.43162 207.63 9.49273 207.722 9.55384L207.875 9.64551C207.936 9.67606 207.997 9.70662 208.059 9.73718C208.12 9.76773 208.181 9.79829 208.242 9.82884L208.273 9.8594C208.396 9.95107 208.518 10.0427 208.641 10.1344C208.671 10.165 208.733 10.1955 208.794 10.2566C208.825 10.2872 208.855 10.3177 208.886 10.3483L208.947 10.4094C208.978 10.4094 209.008 10.4094 209.039 10.44C209.07 10.4705 209.1 10.5011 209.131 10.5316C209.223 10.6233 209.315 10.715 209.407 10.8066C209.437 10.8372 209.468 10.8677 209.499 10.8983L209.56 10.9594C209.56 10.99 209.56 11.0205 209.56 11.0511C209.591 11.0816 209.621 11.1122 209.652 11.1427L209.682 11.1733C209.713 11.2344 209.744 11.2955 209.774 11.3566C209.805 11.3872 209.836 11.4177 209.866 11.4483C209.897 11.4788 209.928 11.5094 209.958 11.54L209.989 11.6011C210.081 11.7844 210.173 11.9677 210.265 12.1511L210.295 12.1816C210.357 12.3038 210.418 12.4261 210.479 12.5483L210.51 12.6094L210.602 12.8844C210.602 12.915 210.602 12.9455 210.602 12.9761L210.694 13.19Z" fill="#FFDE00"/>
</svg>
